<svg xmlns="http://www.w3.org/2000/svg" version="1.1" xmlns:xlink="http://www.w3.org/1999/xlink" xmlns:svgjs="http://svgjs.dev/svgjs" width="1000" height="1125" viewBox="0 0 1000 1125"><g transform="matrix(1,0,0,1,1.7053025658242404e-13,0)"><svg viewBox="0 0 320 360" data-background-color="#ffffff" preserveAspectRatio="xMidYMid meet" height="1125" width="1000" xmlns="http://www.w3.org/2000/svg" xmlns:xlink="http://www.w3.org/1999/xlink"><g id="tight-bounds" transform="matrix(1,0,0,1,0,0)"><svg viewBox="0 0 320 360" height="360" width="320"><g><svg></svg></g><g><svg viewBox="0 0 320 360" height="360" width="320"><g><path xmlns="http://www.w3.org/2000/svg" d="M20.961 227.22l3.726 4.658-1.863-6.056c-0.466-2.795-3.726 0.466-1.863 1.398M25.153 224.425c1.397 2.329 2.795 4.658 2.795 6.987 0 3.261 2.795 4.658 5.123 5.589-3.261-3.726-5.124-13.974-7.918-12.576M204.017 26.929c7.918 0 15.371-0.932 23.756 0.931 20.495 5.124 37.729 15.371 49.374 29.811l32.606 52.169c1.397 13.042 4.192 27.482 3.726 43.319 3.261 0 2.795-4.658 6.521-5.59-3.726 9.316-5.59 20.961-6.521 34.469-2.329-7.453 0-18.632 0.466-24.687-3.261 5.124-5.124 1.397-5.124-0.932 0.466-3.726-1.397-3.261-2.795-4.658-5.124-4.658-8.384-9.782-12.11-17.7 2.329-6.055 2.795-14.905-4.658-19.563-2.329-1.397-5.124-3.726-6.521-7.453-1.863-5.124-5.124-11.179-4.193-19.097 0.466-2.329-6.987 5.124-11.179 1.863-18.166-12.576-36.332-27.016-58.224-39.127-11.645 0-20.029-4.192-24.221-9.316-3.726-4.658-0.932-10.713 4.658-11.179 3.261 0 6.987-0.932 9.782 0.932 0.466-1.863 2.329-4.192 4.657-4.192M157.904 16.215l0.932 0.466c4.658 0.932 6.987 7.453 12.11 5.124 0 3.261 0.466 6.521-0.466 8.85-1.397 3.726-5.59 3.726-8.85 3.726-31.208-1.863-49.374 11.179-68.471 22.358-5.124 3.261-10.713 5.59-14.906 9.782-20.029 18.632-41.921 35.866-47.045 70.335l-4.192 38.195c-0.466 4.192-5.124 8.384-4.192 13.508l3.26 22.824c-3.261-3.261-5.124 0.932-4.192 2.795 0.466 1.397 2.329 6.055 5.124 1.863 3.726 6.987 7.453 20.495 12.576 26.55 15.837 18.632 36.332 35.4 53.101 52.169 4.192-0.932 7.453-0.932 8.384-3.727 1.397 2.795-1.397 5.59-3.726 6.056 7.453 4.658 15.837 8.85 27.016 9.781 14.44 0.932 27.948 3.261 40.524 6.522 6.521-1.863 13.042-2.795 20.029-3.261 2.329 0 3.726-3.726 6.521-4.658l0.466-4.658c2.795 4.192 2.329-1.397 0.466-4.192 3.261 2.795 4.192 5.124 5.589 6.987 0-1.397 3.726-6.521 3.727-0.466l0.931-6.055c1.397-0.932 1.863 5.124 3.261 0.931 1.397-4.192 4.192-0.932 6.987-2.329-0.932 1.863-0.466 5.59 2.794 3.261l3.727-3.261c2.329 5.59 6.055 3.261 7.918 2.329 20.495-13.042 40.99-28.413 60.553-43.784l-0.466 6.055 2.329-7.453c2.329 2.329 4.192 0.466 5.124-0.931 2.795-4.658 6.521-9.316 12.577-13.508-7.453 20.029-16.303 35.866-27.482 48.908l-4.658 5.59c0 3.261-0.932 7.453-4.658 7.918-1.863 0.466-5.59-0.932-8.384 1.863-1.397 1.863 3.261 5.59-0.466 2.795-3.261-2.329-6.521 0-10.248 0.932-2.795 0.932 1.863 3.726 2.795 5.589 0.932 1.863 1.863 3.726 1.398 6.056l-5.124-5.59c-6.055 3.261-9.782 9.316-14.906 13.974-2.329 1.863-1.397 5.124-1.397 7.918-3.261 0-6.987-0.932-8.85 0.932-1.397 1.863-0.932 4.658-0.932 7.453-4.658-0.466-5.124-7.453-9.315-6.056-4.192 0.932-8.85 1.397-12.577 3.727 2.795 5.59-4.658 2.329-3.726 3.26-6.987-4.192-13.042-7.453-20.495-4.658-15.837-5.124-35.4-2.795-49.84-0.931 0-2.329 0.466-4.658-0.466-5.124-0.932 2.329-3.726 1.397-3.26 1.397-8.85-6.055-17.7-9.782-27.016-14.905-8.384 0.932-16.303-3.261-18.632-5.59-6.521-6.055-13.974-2.795-20.029-4.192-13.042-3.261-17.7-16.769-19.098-26.084-0.932-4.658-4.658-6.521-6.055-6.056-6.055-19.563-15.371-37.263-22.824-55.429-1.863-4.658-1.397-9.316-1.397-14.44 2.329 0.932 4.658 0.466 4.192-2.794-2.329-15.371-7.918-27.016-13.974-38.195 3.261-15.837 3.726-34.469 11.179-48.443 6.521-12.576 18.632-19.098 27.016-29.811 2.795-3.726 2.795-8.85 5.59-12.11 9.316-9.316 18.632-19.098 28.879-27.482 4.658-3.726 10.247 0 17.234-1.397 2.329-8.384 11.645-15.837 20.495-13.508 3.726 0.932 11.179-8.85 13.508-9.782 3.726-1.397 1.863 3.726 1.863 6.987 8.85-6.987 20.961-10.713 32.14-14.906" fill="#f5ba41" fill-rule="nonzero" stroke="none" stroke-width="1" stroke-linecap="butt" stroke-linejoin="miter" stroke-miterlimit="10" stroke-dasharray="" stroke-dashoffset="0" font-family="none" font-weight="none" font-size="none" text-anchor="none" style="mix-blend-mode: normal" data-fill-palette-color="tertiary"></path></g><g transform="matrix(1,0,0,1,76.58372640949649,90)"><svg viewBox="0 0 166.83254718100702 180" height="180" width="166.83254718100702"><g><svg viewBox="0 0 166.83254718100702 180" height="180" width="166.83254718100702"><g><svg viewBox="0 0 192 207.1538233034571" height="180" width="166.83254718100702"><g transform="matrix(1,0,0,1,0,125.20760051216389)"><svg viewBox="0 0 192 81.94622279129321" height="81.94622279129321" width="192"><g id="textblocktransform"><svg viewBox="0 0 192 81.94622279129321" height="81.94622279129321" width="192" id="textblock"><g><svg viewBox="0 0 192 81.94622279129321" height="81.94622279129321" width="192"><g transform="matrix(1,0,0,1,0,0)"><svg width="192" viewBox="3.0999999046325684 -37.5 117.13999938964844 50" height="81.94622279129321" data-palette-color="#f5ba41"><path d="M18.35 2.45L13.7 2.45 12.7 0 6.7 0Q5.2 0 4.15-1.05 3.1-2.1 3.1-3.6L3.1-3.6 3.1-31.5Q3.1-32.95 4.15-33.98 5.2-35 6.7-35L6.7-35 18.1-35Q19.6-35 20.65-33.98 21.7-32.95 21.7-31.5L21.7-31.5 21.7-3.6Q21.7-2.1 20.65-1.05 19.6 0 18.1 0L18.1 0 17.35 0 18.35 2.45ZM9.6-4.65L9.6-4.65 10.8-4.65 9.65-7.65 14.35-7.65 15.5-4.65Q16.1-4.75 16.55-5.28 17-5.8 17-6.45L17-6.45 17-28.65Q17-29.35 16.5-29.88 16-30.4 15.2-30.4L15.2-30.4 9.6-30.4Q8.8-30.4 8.3-29.88 7.8-29.35 7.8-28.65L7.8-28.65 7.8-6.45Q7.8-5.7 8.3-5.18 8.8-4.65 9.6-4.65ZM39.4 0L28.95 0Q27.4 0 26.35-1.05 25.3-2.1 25.3-3.65L25.3-3.65 25.3-25 30-25 30-6.5Q30-5.8 30.55-5.25 31.1-4.7 31.8-4.7L31.8-4.7 34.7-4.7 34.7-25 39.4-25 39.4 0ZM48.1-32.8L43.4-31.7 43.4-36.4 48.1-37.5 48.1-32.8ZM48.2 0L43.5 0 43.5-23.9 48.2-25 48.2 0ZM65.79 0L51.69 0 59.29-20.3 51.69-20.3 51.69-25 65.79-25 58.09-4.7 65.79-4.7 65.79 0ZM72.04 0.05L67.39 0.05 74.44-34.95 78.99-34.95 85.94 0.05 81.29 0.05 79.94-6.5 73.29-6.5 72.04 0.05ZM76.74-23.55L74.19-11.1 79.14-11.1 76.74-23.55ZM93.24 12.5L88.54 12.5 88.54-25 98.99-25Q100.54-25 101.59-23.95 102.64-22.9 102.64-21.35L102.64-21.35 102.64-3.65Q102.64-2.1 101.59-1.05 100.54 0 98.99 0L98.99 0 93.24 0 93.24 12.5ZM93.24-20.3L93.24-4.7 96.14-4.7Q96.84-4.7 97.39-5.25 97.94-5.8 97.94-6.5L97.94-6.5 97.94-18.45Q97.94-19.3 97.39-19.8 96.84-20.3 96.14-20.3L96.14-20.3 93.24-20.3ZM110.84 12.5L106.14 12.5 106.14-25 116.59-25Q118.14-25 119.19-23.95 120.24-22.9 120.24-21.35L120.24-21.35 120.24-3.65Q120.24-2.1 119.19-1.05 118.14 0 116.59 0L116.59 0 110.84 0 110.84 12.5ZM110.84-20.3L110.84-4.7 113.74-4.7Q114.44-4.7 114.99-5.25 115.54-5.8 115.54-6.5L115.54-6.5 115.54-18.45Q115.54-19.3 114.99-19.8 114.44-20.3 113.74-20.3L113.74-20.3 110.84-20.3Z" opacity="1" transform="matrix(1,0,0,1,0,0)" fill="#f5ba41" class="undefined-text-0" data-fill-palette-color="primary" id="text-0"></path></svg></g></svg></g></svg></g></svg></g><g transform="matrix(1,0,0,1,52.18468596294438,0)"><svg viewBox="0 0 87.63062807411124 113.24967989756722" height="113.24967989756722" width="87.63062807411124"><g><svg xmlns="http://www.w3.org/2000/svg" xmlns:xlink="http://www.w3.org/1999/xlink" version="1.1" x="0" y="0" viewBox="12.982999801635742 1 75.68599700927734 97.81300354003906" enable-background="new 0 0 100 100" xml:space="preserve" height="113.24967989756722" width="87.63062807411124" class="icon-icon-0" data-fill-palette-color="accent" id="icon-0"><g fill="#f5ba41" data-fill-palette-color="accent"><polygon fill-rule="evenodd" clip-rule="evenodd" points="12.983,10.59 30.001,98.813 24.129,39.764 53.15,37.872 53.096,27.989    64.549,1 53.622,18.977  " fill="#f5ba41" data-fill-palette-color="accent"></polygon><polygon fill-rule="evenodd" clip-rule="evenodd" points="59.389,54.548 64.549,1.007 55.809,40.723 36.197,41.768 37.767,62.23    30.001,98.813 42.058,58.914  " fill="#f5ba41" data-fill-palette-color="accent"></polygon><polygon fill-rule="evenodd" clip-rule="evenodd" points="62.8,67.182 63.349,56.729 47.37,60.484 47.338,72.281 30.001,98.813    51.681,71.197  " fill="#f5ba41" data-fill-palette-color="accent"></polygon><polygon fill-rule="evenodd" clip-rule="evenodd" points="65.711,62.394 80.552,57.663 82.061,45.131 66.162,47.226  " fill="#f5ba41" data-fill-palette-color="accent"></polygon><polygon fill-rule="evenodd" clip-rule="evenodd" points="72.07,44.502 83.058,43.085 84.639,32.807 76.56,32.434 64.549,1    72.979,31.967  " fill="#f5ba41" data-fill-palette-color="accent"></polygon><polygon fill-rule="evenodd" clip-rule="evenodd" points="87.413,31.294 88.669,21.788 79.125,19.094 64.549,1 79.032,23.437    78.61,30.437  " fill="#f5ba41" data-fill-palette-color="accent"></polygon></g></svg></g></svg></g><g></g></svg></g></svg></g></svg></g></svg></g><defs></defs></svg><rect width="320" height="360" fill="none" stroke="none" visibility="hidden"></rect></g></svg></g></svg>